<svg width="18" height="19" viewBox="0 0 18 19" fill="none" xmlns="http://www.w3.org/2000/svg">
<path d="M17.1865 4.74663C17.0779 2.94022 15.5695 1.525 13.7528 1.525H12.8683V0.837502C12.8683 0.458002 12.5603 0.150002 12.1808 0.150002C11.8013 0.150002 11.4933 0.458002 11.4933 0.837502V1.525H5.99331V0.837502C5.99331 0.458002 5.68531 0.150002 5.30581 0.150002C4.92631 0.150002 4.61831 0.458002 4.61831 0.837502V1.525H3.73384C1.91678 1.525 0.408404 2.94022 0.300123 4.74663C0.0962792 8.14425 0.10006 11.5907 0.311467 14.99C0.418717 16.7163 1.80162 18.0993 3.52794 18.2065C5.25803 18.3141 7.0005 18.3677 8.74297 18.3677C10.4851 18.3677 12.2279 18.3141 13.958 18.2065C15.6843 18.0993 17.0672 16.7163 17.1745 14.99C17.3862 11.5924 17.39 8.14631 17.1865 4.74663ZM15.8026 14.9048C15.7379 15.9405 14.9085 16.77 13.8731 16.8343C10.4693 17.0457 7.01734 17.0457 3.61353 16.8343C2.57781 16.7696 1.74834 15.9402 1.68406 14.9048C1.52147 12.2913 1.48812 9.65022 1.57509 7.025H15.9119C15.9985 9.65125 15.9652 12.2923 15.8026 14.9048ZM5.30581 4.275C5.68531 4.275 5.99331 3.967 5.99331 3.5875V2.9H11.4933V3.5875C11.4933 3.967 11.8013 4.275 12.1808 4.275C12.5603 4.275 12.8683 3.967 12.8683 3.5875V2.9H13.7528C14.8435 2.9 15.7489 3.74735 15.8139 4.82878C15.8301 5.10172 15.8369 5.37638 15.8503 5.65H1.63628C1.65003 5.37638 1.65656 5.10172 1.67272 4.82878C1.73769 3.74735 2.64278 2.9 3.73384 2.9H4.61831V3.5875C4.61831 3.967 4.92631 4.275 5.30581 4.275Z" fill="#061F35" stroke="white" stroke-width="0.3"/>
<path d="M5.30627 11.15C5.87582 11.15 6.33752 10.6883 6.33752 10.1188C6.33752 9.54921 5.87582 9.0875 5.30627 9.0875C4.73673 9.0875 4.27502 9.54921 4.27502 10.1188C4.27502 10.6883 4.73673 11.15 5.30627 11.15Z" fill="#061F35" stroke="white" stroke-width="0.3"/>
<path d="M8.74377 11.15C9.31332 11.15 9.77502 10.6883 9.77502 10.1188C9.77502 9.54921 9.31332 9.0875 8.74377 9.0875C8.17423 9.0875 7.71252 9.54921 7.71252 10.1188C7.71252 10.6883 8.17423 11.15 8.74377 11.15Z" fill="#061F35" stroke="white" stroke-width="0.3"/>
<path d="M5.30627 14.5875C5.87582 14.5875 6.33752 14.1258 6.33752 13.5563C6.33752 12.9867 5.87582 12.525 5.30627 12.525C4.73673 12.525 4.27502 12.9867 4.27502 13.5563C4.27502 14.1258 4.73673 14.5875 5.30627 14.5875Z" fill="#061F35" stroke="white" stroke-width="0.3"/>
<path d="M12.1813 11.15C12.7508 11.15 13.2125 10.6883 13.2125 10.1188C13.2125 9.54921 12.7508 9.0875 12.1813 9.0875C11.6117 9.0875 11.15 9.54921 11.15 10.1188C11.15 10.6883 11.6117 11.15 12.1813 11.15Z" fill="#061F35" stroke="white" stroke-width="0.3"/>
<path d="M12.1813 14.5875C12.7508 14.5875 13.2125 14.1258 13.2125 13.5563C13.2125 12.9867 12.7508 12.525 12.1813 12.525C11.6117 12.525 11.15 12.9867 11.15 13.5563C11.15 14.1258 11.6117 14.5875 12.1813 14.5875Z" fill="#061F35" stroke="white" stroke-width="0.3"/>
<path d="M8.74377 14.5875C9.31332 14.5875 9.77502 14.1258 9.77502 13.5563C9.77502 12.9867 9.31332 12.525 8.74377 12.525C8.17423 12.525 7.71252 12.9867 7.71252 13.5563C7.71252 14.1258 8.17423 14.5875 8.74377 14.5875Z" fill="#061F35" stroke="white" stroke-width="0.3"/>
</svg>
