<svg width="24" height="22" viewBox="0 0 24 22" fill="none" xmlns="http://www.w3.org/2000/svg">
<path d="M10.6691 6.48743L11.3846 6.71247L10.6691 6.48743ZM9.07943 9.15525L9.52962 8.5554L9.07943 9.15525ZM9.45471 10.3483L10.1701 10.5734L9.45471 10.3483ZM11.0444 11.5414L10.5942 10.9416L11.0444 11.5414ZM12.2588 11.5414L12.709 10.9416L12.2588 11.5414ZM13.8485 10.3483L13.1331 10.5734L13.8485 10.3483ZM14.2238 9.15525L13.7736 8.5554L14.2238 9.15525ZM12.6341 6.48743L13.3495 6.26239L12.6341 6.48743ZM5.01348 12.6923L5.70922 12.4122V12.4122L5.01348 12.6923ZM8.81929 15.9166L8.51955 16.6041L8.81929 15.9166ZM6.08635 14.3305L6.62116 13.8046L6.08635 14.3305ZM18.29 12.6923L17.5942 12.4122L18.29 12.6923ZM14.4841 15.9166L14.7839 16.6041L14.4841 15.9166ZM17.2171 14.3305L17.7519 14.8563L17.2171 14.3305ZM18.407 4.20498L17.6937 4.43674L18.407 4.20498ZM15.1968 0.994778L14.965 1.70807L15.1968 0.994778ZM4.89644 4.20498L5.60973 4.43674L4.89644 4.20498ZM8.10663 0.994778L8.3384 1.70807L8.10663 0.994778ZM1.98425 10.3573L1.52867 10.9531L1.53932 10.9612L1.55025 10.969L1.98425 10.3573ZM21.3193 10.3573L21.7533 10.969L21.7643 10.9612L21.7749 10.9531L21.3193 10.3573ZM10.9017 20.7501C10.9017 21.1643 11.2375 21.5001 11.6517 21.5001C12.0659 21.5001 12.4017 21.1643 12.4017 20.7501H11.6517H10.9017ZM15.6517 21.5001C16.0659 21.5001 16.4017 21.1643 16.4017 20.7501C16.4017 20.3358 16.0659 20.0001 15.6517 20.0001V20.7501V21.5001ZM7.65172 20.0001C7.2375 20.0001 6.90172 20.3358 6.90172 20.7501C6.90172 21.1643 7.2375 21.5001 7.65172 21.5001V20.7501V20.0001ZM4.89242 12.3473L5.61066 12.1314L4.89242 12.3473ZM18.538 4.75006L17.7984 4.87466L18.538 4.75006ZM18.869 12.0959L18.435 11.4843L18.869 12.0959ZM4.44023 12.0999L4.00622 12.7116L4.44023 12.0999ZM9.68664 7.2248V7.9748C10.475 7.9748 11.152 7.4517 11.3846 6.71247L10.6691 6.48743L9.95368 6.26239C9.90961 6.40252 9.79336 6.4748 9.68664 6.4748V7.2248ZM9.07943 9.15525L9.52962 8.5554C9.41322 8.46803 9.37369 8.33315 9.41959 8.1872C9.44233 8.11493 9.48207 8.06033 9.5239 8.02691C9.56059 7.9976 9.60981 7.9748 9.68664 7.9748V7.2248V6.4748C7.91116 6.4748 7.28678 8.74757 8.62923 9.7551L9.07943 9.15525ZM9.45471 10.3483L10.1701 10.5734C10.4015 9.83777 10.1523 9.0227 9.52962 8.5554L9.07943 9.15525L8.62923 9.7551C8.73072 9.83127 8.78448 9.97953 8.73926 10.1233L9.45471 10.3483ZM11.0444 11.5414L10.5942 10.9416C10.5271 10.9919 10.4739 11.0012 10.4343 11C10.3883 10.9985 10.3331 10.9813 10.2802 10.9416C10.1768 10.864 10.1192 10.7352 10.1701 10.5734L9.45471 10.3483L8.73926 10.1233C8.48092 10.9446 8.81337 11.7162 9.37978 12.1413C9.94971 12.569 10.7926 12.6681 11.4946 12.1413L11.0444 11.5414ZM12.2588 11.5414L12.709 10.9416C12.0802 10.4696 11.223 10.4696 10.5942 10.9416L11.0444 11.5414L11.4946 12.1413C11.5899 12.0697 11.7133 12.0697 11.8086 12.1413L12.2588 11.5414ZM13.8485 10.3483L13.1331 10.5734C13.184 10.7352 13.1264 10.864 13.023 10.9416C12.9701 10.9813 12.915 10.9985 12.869 11C12.8293 11.0012 12.7761 10.9919 12.709 10.9416L12.2588 11.5414L11.8086 12.1413C12.5106 12.6681 13.3535 12.569 13.9234 12.1413C14.4899 11.7162 14.8223 10.9446 14.564 10.1233L13.8485 10.3483ZM14.2238 9.15525L13.7736 8.5554C13.1509 9.0227 12.9017 9.83777 13.1331 10.5734L13.8485 10.3483L14.564 10.1233C14.5187 9.97953 14.5725 9.83127 14.674 9.7551L14.2238 9.15525ZM13.6166 7.2248V7.9748C13.6934 7.9748 13.7426 7.9976 13.7793 8.02691C13.8212 8.06033 13.8609 8.11493 13.8836 8.1872C13.9295 8.33315 13.89 8.46803 13.7736 8.5554L14.2238 9.15525L14.674 9.7551C16.0164 8.74757 15.3921 6.4748 13.6166 6.4748V7.2248ZM12.6341 6.48743L11.9187 6.71247C12.1512 7.4517 12.8282 7.9748 13.6166 7.9748V7.2248V6.4748C13.5099 6.4748 13.3936 6.40251 13.3495 6.26239L12.6341 6.48743ZM12.6341 6.48743L13.3495 6.26239C12.8201 4.57928 10.4831 4.57928 9.95368 6.26239L10.6691 6.48743L11.3846 6.71247C11.4736 6.42926 11.8296 6.42926 11.9187 6.71247L12.6341 6.48743ZM18.6517 7.75006H17.9017V9.05046H18.6517H19.4017V7.75006H18.6517ZM4.65172 9.05046H5.40172V7.75006H4.65172H3.90172V9.05046H4.65172ZM14.4841 15.9166L14.1844 15.2291C13.6582 15.4585 13.1517 15.6552 12.702 15.7934C12.2413 15.935 11.8878 16.0001 11.6517 16.0001V16.7501V17.5001C12.1099 17.5001 12.6313 17.3844 13.1426 17.2272C13.665 17.0667 14.2275 16.8467 14.7839 16.6041L14.4841 15.9166ZM11.6517 16.7501V16.0001C11.4157 16.0001 11.0621 15.935 10.6014 15.7934C10.1518 15.6552 9.64522 15.4585 9.11903 15.2291L8.81929 15.9166L8.51955 16.6041C9.0759 16.8467 9.63847 17.0667 10.1608 17.2272C10.6722 17.3844 11.1935 17.5001 11.6517 17.5001V16.7501ZM8.81929 15.9166L9.11903 15.2291C7.72257 14.6203 7.18063 14.3737 6.62116 13.8046L6.08635 14.3305L5.55155 14.8563C6.35035 15.6687 7.17761 16.0191 8.51955 16.6041L8.81929 15.9166ZM5.01348 12.6923L4.31774 12.9724C4.57323 13.607 5.07193 14.3685 5.55155 14.8563L6.08635 14.3305L6.62116 13.8046C6.28017 13.4578 5.89086 12.8634 5.70922 12.4122L5.01348 12.6923ZM14.4841 15.9166L14.7839 16.6041C16.1258 16.0191 16.9531 15.6687 17.7519 14.8563L17.2171 14.3305L16.6823 13.8046C16.1228 14.3737 15.5809 14.6203 14.1844 15.2291L14.4841 15.9166ZM18.29 12.6923L17.5942 12.4122C17.4126 12.8634 17.0233 13.4578 16.6823 13.8046L17.2171 14.3305L17.7519 14.8563C18.2315 14.3685 18.7302 13.607 18.9857 12.9724L18.29 12.6923ZM11.6517 0.750061V1.50006C13.5714 1.50006 14.3533 1.50931 14.965 1.70807L15.1968 0.994778L15.4286 0.281486C14.534 -0.00919199 13.4546 6.10352e-05 11.6517 6.10352e-05V0.750061ZM18.407 4.20498L19.1203 3.97321C18.5515 2.22269 17.1791 0.850264 15.4286 0.281486L15.1968 0.994778L14.965 1.70807C16.2589 2.12847 17.2733 3.14288 17.6937 4.43674L18.407 4.20498ZM11.6517 0.750061V6.10352e-05C9.84881 6.10352e-05 8.76949 -0.00919199 7.87487 0.281486L8.10663 0.994778L8.3384 1.70807C8.95011 1.50931 9.73206 1.50006 11.6517 1.50006V0.750061ZM4.89644 4.20498L5.60973 4.43674C6.03013 3.14288 7.04453 2.12847 8.3384 1.70807L8.10663 0.994778L7.87487 0.281486C6.12435 0.850264 4.75192 2.2227 4.18314 3.97321L4.89644 4.20498ZM4.44023 12.0999L4.87423 11.4882L2.41826 9.74562L1.98425 10.3573L1.55025 10.969L4.00622 12.7116L4.44023 12.0999ZM1.98425 10.3573L2.43984 9.76153C0.635767 8.38194 1.61138 5.50006 3.88249 5.50006V4.75006V4.00006C0.176946 4.00006 -1.41486 8.70213 1.52867 10.9531L1.98425 10.3573ZM18.869 12.0959L19.303 12.7076L21.7533 10.969L21.3193 10.3573L20.8853 9.74562L18.435 11.4843L18.869 12.0959ZM21.3193 10.3573L21.7749 10.9531C24.7184 8.70213 23.1266 4.00006 19.4211 4.00006V4.75006V5.50006C21.6922 5.50006 22.6678 8.38194 20.8637 9.76153L21.3193 10.3573ZM11.6517 16.7501H10.9017V20.7501H11.6517H12.4017V16.7501H11.6517ZM15.6517 20.7501V20.0001H7.65172V20.7501V21.5001H15.6517V20.7501ZM4.65172 7.75006H5.40172C5.40172 6.27821 5.40434 5.47226 5.50501 4.87466L4.76543 4.75006L4.02586 4.62547C3.8991 5.37786 3.90172 6.33859 3.90172 7.75006H4.65172ZM4.76543 4.75006L5.50501 4.87466C5.53285 4.70941 5.56743 4.56691 5.60973 4.43674L4.89644 4.20498L4.18314 3.97321C4.1151 4.18264 4.06421 4.39778 4.02586 4.62547L4.76543 4.75006ZM4.65172 9.05046H3.90172C3.90172 10.6036 3.89441 11.6327 4.17417 12.5633L4.89242 12.3473L5.61066 12.1314C5.40902 11.4607 5.40172 10.6905 5.40172 9.05046H4.65172ZM4.89242 12.3473L4.17417 12.5633C4.21574 12.7015 4.26336 12.8373 4.31774 12.9724L5.01348 12.6923L5.70922 12.4122C5.67172 12.3191 5.63912 12.2261 5.61066 12.1314L4.89242 12.3473ZM18.6517 9.05046H17.9017C17.9017 10.6975 17.8943 11.4674 17.6903 12.1397L18.408 12.3575L19.1256 12.5753C19.4091 11.6411 19.4017 10.61 19.4017 9.05046H18.6517ZM18.408 12.3575L17.6903 12.1397C17.6624 12.2315 17.6306 12.3217 17.5942 12.4122L18.29 12.6923L18.9857 12.9724C19.0385 12.8412 19.0849 12.7094 19.1256 12.5753L18.408 12.3575ZM18.6517 7.75006H19.4017C19.4017 6.33859 19.4043 5.37786 19.2776 4.62547L18.538 4.75006L17.7984 4.87466C17.8991 5.47226 17.9017 6.27821 17.9017 7.75006H18.6517ZM18.538 4.75006L19.2776 4.62547C19.2392 4.39777 19.1883 4.18263 19.1203 3.97321L18.407 4.20498L17.6937 4.43674C17.736 4.56691 17.7706 4.70941 17.7984 4.87466L18.538 4.75006ZM18.869 12.0959L18.435 11.4843C18.3317 11.5575 18.2214 11.6201 18.1056 11.6711L18.408 12.3575L18.7104 13.0438C18.9187 12.952 19.1173 12.8394 19.303 12.7076L18.869 12.0959ZM4.44023 12.0999L4.00622 12.7116C4.19435 12.8451 4.3974 12.9562 4.61125 13.0426L4.89242 12.3473L5.17359 11.652C5.06778 11.6093 4.96732 11.5543 4.87423 11.4882L4.44023 12.0999ZM3.88249 4.75006V5.50006H4.76543V4.75006V4.00006H3.88249V4.75006ZM19.4211 4.75006V4.00006H18.538V4.75006V5.50006H19.4211V4.75006Z" fill="#2D264B"/>
</svg>
