<svg width="20" height="20" viewBox="0 0 20 20" fill="none" xmlns="http://www.w3.org/2000/svg">
<path d="M2.50854 9.35081V13.0925C2.50854 16.8341 4.00854 18.3342 7.75021 18.3342H12.2419C15.9835 18.3342 17.4835 16.8341 17.4835 13.0925V9.35081" stroke="white" stroke-linecap="round" stroke-linejoin="round"/>
<path d="M9.99999 9.99953C11.525 9.99953 12.65 8.75786 12.5 7.23286L11.95 1.6662H8.05832L7.49999 7.23286C7.34999 8.75786 8.47499 9.99953 9.99999 9.99953Z" stroke="white" stroke-linecap="round" stroke-linejoin="round"/>
<path d="M15.2584 9.99953C16.9417 9.99953 18.1751 8.63286 18.0084 6.95786L17.7751 4.6662C17.4751 2.49953 16.6417 1.6662 14.4584 1.6662H11.9167L12.5001 7.50786C12.6417 8.88286 13.8834 9.99953 15.2584 9.99953Z" stroke="white" stroke-linecap="round" stroke-linejoin="round"/>
<path d="M4.6999 9.99953C6.0749 9.99953 7.31657 8.88286 7.4499 7.50786L7.63323 5.6662L8.03323 1.6662H5.49157C3.30824 1.6662 2.4749 2.49953 2.1749 4.6662L1.9499 6.95786C1.78324 8.63286 3.01657 9.99953 4.6999 9.99953Z" stroke="white" stroke-linecap="round" stroke-linejoin="round"/>
<path d="M9.99971 14.1657C8.60805 14.1657 7.91638 14.8574 7.91638 16.2491V18.3324H12.083V16.2491C12.083 14.8574 11.3914 14.1657 9.99971 14.1657Z" stroke="white" stroke-linecap="round" stroke-linejoin="round"/>
</svg>
