<svg width="22" height="22" viewBox="0 0 22 22" fill="none" xmlns="http://www.w3.org/2000/svg">
<path d="M20.1685 6.64404H14.6685C14.2926 6.64404 13.981 6.33238 13.981 5.95654C13.981 5.58071 14.2926 5.26904 14.6685 5.26904H20.1685C20.5443 5.26904 20.856 5.58071 20.856 5.95654C20.856 6.33238 20.5443 6.64404 20.1685 6.64404Z" fill="#061F35"/>
<path d="M5.49821 6.64404H1.83154C1.45571 6.64404 1.14404 6.33238 1.14404 5.95654C1.14404 5.58071 1.45571 5.26904 1.83154 5.26904H5.49821C5.87404 5.26904 6.18571 5.58071 6.18571 5.95654C6.18571 6.33238 5.87404 6.64404 5.49821 6.64404Z" fill="#061F35"/>
<path d="M9.16488 9.85417C7.01988 9.85417 5.26904 8.10333 5.26904 5.95833C5.26904 3.81333 7.01988 2.0625 9.16488 2.0625C11.3099 2.0625 13.0607 3.81333 13.0607 5.95833C13.0607 8.10333 11.3099 9.85417 9.16488 9.85417ZM9.16488 3.4375C7.77154 3.4375 6.64404 4.565 6.64404 5.95833C6.64404 7.35167 7.77154 8.47917 9.16488 8.47917C10.5582 8.47917 11.6857 7.35167 11.6857 5.95833C11.6857 4.565 10.5582 3.4375 9.16488 3.4375Z" fill="#061F35"/>
<path d="M20.1667 16.731H16.5C16.1242 16.731 15.8125 16.4193 15.8125 16.0435C15.8125 15.6676 16.1242 15.356 16.5 15.356H20.1667C20.5425 15.356 20.8542 15.6676 20.8542 16.0435C20.8542 16.4193 20.5425 16.731 20.1667 16.731Z" fill="#061F35"/>
<path d="M7.33154 16.731H1.83154C1.45571 16.731 1.14404 16.4193 1.14404 16.0435C1.14404 15.6676 1.45571 15.356 1.83154 15.356H7.33154C7.70738 15.356 8.01904 15.6676 8.01904 16.0435C8.01904 16.4193 7.70738 16.731 7.33154 16.731Z" fill="#061F35"/>
<path d="M12.8333 19.9357C10.6883 19.9357 8.9375 18.1849 8.9375 16.0399C8.9375 13.8949 10.6883 12.144 12.8333 12.144C14.9783 12.144 16.7292 13.8949 16.7292 16.0399C16.7292 18.1849 14.9783 19.9357 12.8333 19.9357ZM12.8333 13.519C11.44 13.519 10.3125 14.6465 10.3125 16.0399C10.3125 17.4332 11.44 18.5607 12.8333 18.5607C14.2267 18.5607 15.3542 17.4332 15.3542 16.0399C15.3542 14.6465 14.2267 13.519 12.8333 13.519Z" fill="#061F35"/>
</svg>
