<svg width="45" height="46" viewBox="0 0 45 46" fill="none" xmlns="http://www.w3.org/2000/svg">
<path d="M32.3413 14.0376C32.3413 14.0376 34.0171 13.8341 34.1686 15.4294C34.3201 17.0248 33.7852 18.2509 32.7911 18.7811C32.7911 18.7811 32.578 18.8852 32.0904 18.9704L32.3413 14.0424V14.0376Z" fill="#FFB69F"/>
<path d="M13.3872 14.0376C13.3872 14.0376 11.7114 13.8341 11.5599 15.4294C11.4084 17.0248 11.9433 18.2509 12.9375 18.7811C12.9375 18.7811 13.1505 18.8852 13.6381 18.9704L13.3872 14.0424V14.0376Z" fill="#FFB69F"/>
<path d="M3.05176e-05 45.3311C3.05176e-05 45.3311 3.05176e-05 38.6373 3.91975 37.3165C7.83947 35.9957 16.6967 30.9257 16.6967 30.9257H22.6899V45.3311H3.05176e-05Z" fill="#F49037"/>
<path d="M45.0072 45.3311C45.0072 45.3311 45.0072 38.6373 41.0875 37.3165C37.1678 35.9957 28.4052 30.9257 28.4052 30.9257H22.3174V45.3311H45.0072Z" fill="#F49037"/>
<path d="M18.1912 26.2953L17.6373 30.9251H27.3798L26.7738 26.2953H18.1912Z" fill="#FFB69F"/>
<path d="M22.5085 33.6948C25.1989 33.6948 27.3798 32.7474 27.3798 31.5787C27.3798 30.41 25.1989 29.4626 22.5085 29.4626C19.8182 29.4626 17.6373 30.41 17.6373 31.5787C17.6373 32.7474 19.8182 33.6948 22.5085 33.6948Z" fill="#FFB69F"/>
<path d="M17.8142 29.3911C17.8142 29.3911 24.4654 30.0018 26.8087 27.0857V23.7341L18.3775 24.5436L17.8142 29.3911Z" fill="#FF9988"/>
<path d="M22.9023 27.6403C28.2646 27.6403 32.6117 22.083 32.6117 15.2278C32.6117 8.37263 28.2646 2.81539 22.9023 2.81539C17.54 2.81539 13.193 8.37263 13.193 15.2278C13.193 22.083 17.54 27.6403 22.9023 27.6403Z" fill="#FFB69F"/>
<path d="M31.3737 5.31443C31.3737 5.31443 31.3832 5.29076 31.3737 5.27656C31.0518 4.50492 30.6589 0.627807 24.3438 0.0407955C22.7248 -0.110691 20.4099 0.159144 18.9424 0.85977C16.9304 1.81603 14.6818 2.36517 12.6935 2.36044C12.6083 2.36044 12.5752 2.47405 12.6509 2.51666L14.2037 3.75222C14.2652 3.78536 14.2605 3.8753 14.1942 3.90371L12.2438 4.49545C12.1728 4.52385 12.1728 4.628 12.2438 4.65167C12.561 4.75582 13.3658 5.11087 14.0948 5.36177C12.9018 7.47311 13.1764 10.5076 13.1764 14.1527C13.1764 14.1527 13.1385 17.9304 14.412 22.262C15.8037 26.996 18.8572 29.0268 23.1603 29.041C27.7428 29.06 30.1334 25.1308 30.7725 23.7343C31.7477 21.5945 32.5856 17.618 32.5904 15.2273C32.5904 15.2273 34.3514 9.18681 31.3643 5.31443H31.3737ZM27.4824 22.8537C26.5356 23.3366 27.0138 20.8229 25.1297 20.7187C24.5 20.6809 22.3603 20.5341 20.5614 20.6856C19.1933 20.8039 18.8619 22.0348 18.8003 22.6597C18.7719 22.9295 18.6773 23.0526 18.4216 22.9579C17.8536 22.7496 16.6464 22.0774 16.0783 21.4525C15.4913 20.8087 14.4309 19.0713 14.3315 15.4025L14.4356 10.162C14.4356 10.162 16.5422 8.39623 16.9068 7.14174C16.9068 7.14174 26.3179 8.64713 29.0446 7.14174C29.0446 7.14174 30.1855 9.32409 31.4305 9.98211C31.814 10.1809 31.7477 12.671 31.7146 14.3894C31.6814 14.6214 31.653 14.8865 31.6388 15.1989C31.3879 20.1081 28.4198 22.3756 27.4777 22.8585L27.4824 22.8537Z" fill="#B54D4D"/>
<path d="M27.4964 16.2196C27.8126 16.2196 28.069 15.7747 28.069 15.2258C28.069 14.6769 27.8126 14.232 27.4964 14.232C27.1801 14.232 26.9237 14.6769 26.9237 15.2258C26.9237 15.7747 27.1801 16.2196 27.4964 16.2196Z" fill="#441D39"/>
<path d="M18.9026 16.0169C19.2189 16.0169 19.4753 15.5719 19.4753 15.0231C19.4753 14.4742 19.2189 14.0292 18.9026 14.0292C18.5864 14.0292 18.33 14.4742 18.33 15.0231C18.33 15.5719 18.5864 16.0169 18.9026 16.0169Z" fill="#441D39"/>
<path d="M23.572 19.6942H22.6678C22.2655 19.6942 21.9104 19.538 21.721 19.2777C21.5838 19.093 21.5459 18.8753 21.6122 18.6622C21.8157 18.009 22.0808 15.571 22.0808 15.5473C22.095 15.4147 22.2086 15.3248 22.3412 15.339C22.469 15.3532 22.5637 15.4716 22.5495 15.5994C22.54 15.7035 22.2749 18.1036 22.0619 18.8043C22.043 18.8753 22.0524 18.9368 22.0998 19.0031C22.1992 19.1356 22.4217 19.2256 22.6678 19.2256H23.572C23.7046 19.2256 23.8087 19.3297 23.8087 19.4623C23.8087 19.5948 23.7046 19.699 23.572 19.699V19.6942Z" fill="#FF9988"/>
<path d="M27.9863 17.7791C28.8988 17.7791 29.6385 17.6095 29.6385 17.4003C29.6385 17.1912 28.8988 17.0216 27.9863 17.0216C27.0739 17.0216 26.3342 17.1912 26.3342 17.4003C26.3342 17.6095 27.0739 17.7791 27.9863 17.7791Z" fill="#FF9988"/>
<path d="M18.3459 17.7791C19.2584 17.7791 19.9981 17.6095 19.9981 17.4003C19.9981 17.1912 19.2584 17.0216 18.3459 17.0216C17.4335 17.0216 16.6938 17.1912 16.6938 17.4003C16.6938 17.6095 17.4335 17.7791 18.3459 17.7791Z" fill="#FF9988"/>
<path d="M29.5002 12.9152C27.9238 12.4512 26.7166 12.7447 25.9828 12.8394C25.6704 12.8773 25.6041 12.4938 25.6041 12.4938C25.5426 12.2335 25.8929 12.0536 26.1391 12.0063C26.9675 11.8548 28.0279 11.779 29.5996 12.3234C29.9026 12.4276 29.9215 12.6832 29.9215 12.6832C29.8883 12.9672 29.7085 12.972 29.5002 12.9104V12.9152Z" fill="#B54D4D"/>
<path d="M16.8103 12.9452C18.3773 12.4529 19.5892 12.7274 20.3229 12.8079C20.6354 12.841 20.6969 12.4576 20.6969 12.4576C20.7537 12.1972 20.3987 12.0221 20.1525 11.9795C19.3193 11.8422 18.2589 11.7806 16.7015 12.3534C16.3985 12.4623 16.3843 12.718 16.3843 12.718C16.4221 13.002 16.602 13.002 16.8056 12.9405L16.8103 12.9452Z" fill="#B54D4D"/>
<path d="M22.8452 23.5407C21.728 23.5407 20.838 23.304 20.7812 23.2898C20.6534 23.2566 20.5824 23.1241 20.6155 23.001C20.6487 22.8779 20.7812 22.8022 20.9043 22.8353C20.928 22.84 23.1056 23.4176 24.8619 22.7311C24.985 22.6838 25.1223 22.7453 25.1696 22.8637C25.2169 22.9868 25.1554 23.1241 25.037 23.1714C24.3128 23.4554 23.5364 23.5454 22.85 23.5454L22.8452 23.5407Z" fill="#9B3D3D"/>
<path d="M17.8404 29.4148L21.6086 32.1036L19.7861 36.4684L14.9101 31.9285L17.8404 29.4148Z" fill="#FFA242"/>
<path d="M21.6055 32.1031L21.8327 33.7168L20.9761 33.608L21.6055 32.1031Z" fill="#F49037"/>
<path d="M23.7542 32.0164L23.4229 33.7154L24.3505 33.5592L23.7542 32.0164Z" fill="#F49037"/>
<path d="M23.7618 32.0174L27.2129 29.4848L30.4462 32.079L25.6365 36.8839L23.7618 32.0174Z" fill="#FFA242"/>
<path d="M23.4169 34.3381H21.831V45.3257H23.4169V34.3381Z" fill="white"/>
<path d="M21.8061 33.4897L21.8392 34.4551C21.8392 34.4551 22.5775 34.7769 23.4246 34.4551L23.4483 33.5796L21.8013 33.485L21.8061 33.4897Z" fill="#FFB69F"/>
<path d="M23.4164 36.6578H21.831V37.1311H23.4164V36.6578Z" fill="#D6D6D6"/>
<path d="M23.4164 38.7935H21.831V39.2667H23.4164V38.7935Z" fill="#D6D6D6"/>
<path d="M23.4164 40.929H21.831V41.4022H23.4164V40.929Z" fill="#D6D6D6"/>
<path d="M23.4164 43.0608H21.831V43.534H23.4164V43.0608Z" fill="#D6D6D6"/>
<path d="M24.7753 39.2523C25.0053 39.2523 25.1917 39.0658 25.1917 38.8358C25.1917 38.6058 25.0053 38.4194 24.7753 38.4194C24.5453 38.4194 24.3588 38.6058 24.3588 38.8358C24.3588 39.0658 24.5453 39.2523 24.7753 39.2523Z" fill="#FFA242"/>
<path d="M24.7753 43.8993C25.0053 43.8993 25.1917 43.7129 25.1917 43.4829C25.1917 43.2529 25.0053 43.0664 24.7753 43.0664C24.5453 43.0664 24.3588 43.2529 24.3588 43.4829C24.3588 43.7129 24.5453 43.8993 24.7753 43.8993Z" fill="#FFA242"/>
</svg>
